# xmcd
#
# Track frame offsets:
#	150
#	15252
#	36490
#	51561
#	73028
#	87566
#	105135
#	122935
#	147794
#	161726
#	182698
#	201646
#
# Disc length: 2878 seconds
#
# Revision: 0
# Processed by: cddbd v1.5.2PL0 Copyright (c) Steve Scherf et al.
# Submitted via: dBpowerAMP V4.0
#
DISCID=ae0b3c0c
DTITLE=septeto tipico tivoli - de mi isla al caribe
DYEAR=1900
DGENRE=salsa
TTITLE0=traicionera
TTITLE1=viejo amigo
TTITLE2=eras
TTITLE3=vete y pregona
TTITLE4=donde estas
TTITLE5=buenos dias america
TTITLE6=volveras
TTITLE7=oye el carbonero
TTITLE8=como te atreves
TTITLE9=pa los rumberos 
TTITLE10=si fueras
TTITLE11=quiero salsa 
EXTD=first saw this group in Edinburgh at the bongo club and bought the cd from them , they were great . My name is Filipe and I can be found lurking on the boards of www.salsaholics.org 
EXTT0=
EXTT1=
EXTT2=
EXTT3=
EXTT4=
EXTT5=
EXTT6=
EXTT7=
EXTT8=
EXTT9=
EXTT10=
EXTT11=
PLAYORDER=
